PathFileType	4	(X/Y/Z)	C:\Users\WrightLab\Desktop\Jo\P5V212.trc
DataRate	CameraRate	NumFrames	NumMarkers	Units	OrigDataRate	OrigDataStartFrame	OrigNumFrames
100.00	100.00	       15	19	mm	100.00	411	       469
Frame#	Time	Headset_Front			Headset_Back			Headset_Left			Headset_Right			Left_Shoulder			Right_Shoulder			Sternum			C7			Left Elbow			Right Elbow			Left Wrist			Right Wrist			Left ASIS			Right ASIS			S2			Left Knee			Right Knee			Left Ankle			Right Ankle			
		X1	Y1	Z1	X2	Y2	Z2	X3	Y3	Z3	X4	Y4	Z4	X5	Y5	Z5	X6	Y6	Z6	X7	Y7	Z7	X8	Y8	Z8	X9	Y9	Z9	X10	Y10	Z10	X11	Y11	Z11	X12	Y12	Z12	X13	Y13	Z13	X14	Y14	Z14	X15	Y15	Z15	X16	Y16	Z16	X17	Y17	Z17	X18	Y18	Z18	X19	Y19	Z19	

411	4.100										-541.90173	1649.80347	-45.16219	-250.95850	1526.07153	-288.17105	-622.12579	1447.13708	-137.19978	-404.79678	1321.92468	-147.78058	-497.59586	1530.81079	-326.96490	-149.35985	1242.58191	-312.87814	-743.33661	1192.08521	-83.71054	-156.46994	1011.41089	-205.08984	-728.74329	1089.11890	140.00426	-237.03537	945.88184	-207.73402	-511.59717	935.50275	-123.17075	-426.66937	987.85608	-433.06787	-197.63474	514.78107	-244.62726	-576.87451	485.24811	-182.69359	-241.74814	102.79239	-283.72223	-503.36716	89.38168	-245.13051	
412	4.110										-540.45990	1653.84192	-47.40208	-251.35350	1525.41614	-289.97458	-622.02612	1447.21008	-136.87289	-404.01822	1322.32312	-149.26071	-498.35501	1530.89795	-327.40216	-149.91475	1242.24866	-314.85748	-742.25897	1190.07031	-84.08323	-155.75935	1011.57104	-207.85100	-727.43475	1086.97522	137.43443	-236.87553	945.74017	-210.03116	-509.99173	935.63843	-123.66610	-427.86215	987.74347	-433.49020	-198.92409	514.64233	-247.38312	-576.74945	484.51862	-184.23997	-241.72604	104.09085	-288.67108	-503.43372	89.39432	-245.15929	
413	4.120													-251.77632	1525.56885	-292.67676	-621.18622	1446.89868	-136.20946	-403.27539	1322.19299	-150.22380	-499.02954	1530.71692	-327.75204	-150.73077	1241.86377	-317.52887	-740.95758	1188.26196	-86.32446	-155.09482	1011.87561	-210.54237	-725.73926	1085.70837	134.08003	-236.41141	946.39227	-211.83861	-508.10925	934.91949	-124.80314	-429.43256	987.73621	-434.29535	-199.14487	514.44867	-250.39676	-575.53333	484.58649	-184.21390	-242.19806	105.11333	-294.08041	-503.55939	89.13406	-244.84715	
414	4.130													-252.25154	1525.77332	-295.97592	-619.85889	1446.51062	-135.67754	-402.30090	1322.53052	-150.81364	-499.45895	1530.45728	-328.02185	-150.50143	1241.62036	-320.33429	-740.80487	1187.81091	-88.01729	-154.25522	1011.50983	-211.82716	-724.19147	1083.59949	131.66025	-236.43346	946.63934	-215.18028	-506.60287	935.39026	-126.80717	-431.03329	987.17151	-435.34045	-199.45212	514.51355	-252.88885	-574.80762	484.78461	-184.28712	-241.66368	106.13885	-299.87628	-503.59821	89.14218	-244.84962	
415	4.140	-536.86792	1663.57544	-55.41255										-252.51930	1525.61255	-296.85876	-619.85889	1446.51062	-135.67754	-401.54617	1323.11658	-151.31111	-500.15427	1530.45093	-328.95938	-152.19769	1242.40723	-323.31088	-739.87280	1186.55176	-91.15768	-154.42909	1010.95239	-215.60924	-722.38501	1082.06226	128.52759	-236.36920	945.76630	-217.14078	-505.06732	936.03430	-127.57938	-431.88519	986.77075	-435.66266	-199.81911	514.81079	-254.73564	-574.06128	484.33743	-185.08502	-241.04111	107.79928	-306.53625	-503.76514	89.02038	-244.83978	
416	4.150	-535.64862	1666.79858	-58.35595										-252.83257	1525.03674	-299.64899	-618.46869	1446.05139	-135.60332	-401.52649	1322.82666	-153.54236	-500.66748	1530.62830	-329.93738	-152.05225	1241.56787	-327.18881	-739.64069	1186.57166	-92.58857	-153.52739	1010.30524	-218.58200	-721.31982	1080.52869	125.94928	-237.06462	945.27728	-218.47699	-503.82718	935.79297	-129.66476	-433.04041	986.50897	-436.88324	-200.37381	514.91595	-257.56647	-573.58624	484.94385	-186.43585	-240.97607	108.46955	-312.82785	-503.66721	89.18707	-244.87619	
417	4.160													-252.38947	1525.83252	-301.52234	-618.51105	1446.09656	-136.24106	-400.61343	1323.07983	-153.69249	-500.80777	1530.32629	-330.83664	-152.58456	1241.23047	-328.71310	-738.50000	1184.84265	-94.29793	-152.96698	1010.40485	-220.06027	-719.06335	1078.67139	123.94946	-237.77779	945.63379	-221.90784	-503.09808	935.68170	-130.52199	-434.23990	986.65906	-438.02032	-200.74939	514.18024	-259.31900	-572.70288	484.43518	-187.51868	-241.75215	110.29147	-321.34732	-503.80685	89.03033	-244.83745	
418	4.170	-533.81427	1671.96021	-64.33592										-252.55623	1525.55151	-302.83060	-617.79382	1445.75574	-136.33554	-398.99631	1323.34412	-154.74060	-500.74869	1530.06750	-331.52475	-153.03557	1240.73267	-331.01184	-737.85785	1184.08655	-96.90634	-152.41240	1009.88177	-223.71388	-716.92798	1076.97998	121.17910	-237.06670	944.87103	-223.15718	-502.43304	935.30316	-130.48477	-435.14218	985.78436	-438.55447	-201.49402	514.51996	-260.83740	-571.18158	484.73837	-187.50421	-241.61917	111.25715	-328.03201	-503.82553	89.04874	-244.85062	
419	4.180	-533.03986	1674.21191	-66.90399										-252.55585	1525.27722	-305.06534	-617.12549	1445.95483	-136.81850	-398.87415	1322.74561	-156.26666	-501.15341	1530.09668	-333.81552	-153.14488	1239.98767	-332.76202	-737.91113	1184.75623	-99.88725	-152.04099	1009.43762	-226.73195	-716.07001	1074.99597	117.31934	-237.29527	944.23438	-224.82942	-501.67255	935.38318	-132.69385	-435.75269	985.50610	-438.83347	-202.39078	514.31049	-262.61743	-570.19751	484.74203	-188.02284	-241.90123	112.55800	-336.27060	-503.81216	89.02504	-244.85385	
420	4.190	-532.37140	1676.07642	-70.14687										-252.05751	1524.63940	-308.10840	-617.14313	1446.19885	-138.55440	-398.31433	1322.90515	-157.71051	-501.19315	1530.05115	-334.56711	-153.14247	1239.71069	-334.75681	-737.39978	1184.15479	-100.95605	-152.21501	1008.78180	-229.62131	-714.51190	1073.32153	115.24021	-237.88867	944.58411	-227.65184	-501.63440	935.70117	-133.29388	-436.89221	985.41711	-440.16495	-203.32396	513.64294	-263.91556	-569.61365	484.90970	-188.43170	-240.89891	114.14851	-344.42139	-503.79483	89.02348	-244.83446	
421	4.200	-418.98553	1638.30847	-15.34112										-252.69400	1523.51550	-310.54221	-615.20587	1445.44458	-138.86218	-397.97348	1322.89099	-159.10313	-501.03470	1529.42200	-336.45078	-153.15477	1239.29626	-338.11197	-736.48474	1183.77930	-103.00391	-152.38348	1008.54144	-231.97481	-712.22528	1071.82556	112.58673	-238.20001	943.55499	-228.89291	-501.00284	935.90564	-133.00957	-438.05505	984.94519	-440.40314	-203.97931	513.35449	-265.93585	-568.58069	485.40424	-188.55042	-240.81627	115.44537	-351.72845	-503.81531	89.01838	-244.84613	
422	4.210	-530.92261	1679.91150	-76.75628										-252.62102	1523.19080	-311.93652	-614.68982	1445.35669	-140.52174	-395.28140	1322.83716	-157.70007	-501.24075	1530.05017	-338.93491	-153.12440	1238.73682	-340.31366	-734.68353	1182.17749	-105.24320	-151.32507	1007.67078	-234.22862	-710.52966	1070.29309	109.72057	-238.49057	943.15594	-229.87183	-500.43790	935.96075	-133.12573	-438.53104	984.43091	-441.42691	-204.69925	512.44806	-267.32462	-567.84076	484.92160	-189.24475	-240.61877	117.06616	-360.52902	-503.78226	89.00248	-244.81870	
423	4.220	-530.26587	1681.39783	-79.77628										-251.90952	1522.69458	-314.88297	-614.15564	1445.48511	-141.64554	-394.85388	1323.30652	-159.22719	-500.88132	1529.41528	-339.88727	-153.18202	1238.19507	-341.47388	-734.72565	1182.65027	-108.28152	-150.97763	1006.94611	-237.47412	-708.80908	1068.21619	106.45988	-239.09480	942.36108	-231.10834	-500.34647	936.17108	-133.21767	-438.32852	983.77344	-442.11954	-205.52037	512.51385	-269.11569	-567.07135	484.96783	-189.14163	-240.75616	118.58172	-369.56073	-503.80795	89.03235	-244.84261	
424	4.230													-251.58098	1522.37952	-317.69211	-614.13287	1445.86133	-143.90860	-394.49649	1323.14038	-161.26100	-500.09207	1529.03198	-341.96286	-152.47264	1237.88550	-347.59277	-733.71490	1182.28943	-110.22702	-150.67584	1006.38220	-239.35547	-707.52625	1067.19995	103.40179	-238.78079	942.85028	-233.42468	-500.30347	936.77771	-132.79170	-438.57587	983.09241	-442.94708	-206.13634	512.11719	-270.46164	-566.77405	485.03183	-189.10965	-239.92398	120.67233	-378.47308	-503.80066	89.01997	-244.83076	
425	4.240													-250.69403	1523.33716	-320.51636	-613.61664	1446.23621	-145.87744	-394.04056	1324.19946	-163.30394	-499.88480	1528.82080	-344.37405	-152.06911	1237.57434	-349.03894	-732.75635	1182.19141	-112.67903	-150.41179	1005.75873	-241.22420	-706.08362	1065.43433	99.81297	-238.83449	943.13544	-233.98499	-500.04584	936.58917	-132.42497	-439.27847	982.39886	-443.60999	-206.85342	511.58246	-272.49582	-565.85547	485.05264	-189.13406	-239.34932	122.67135	-387.28311	-503.80429	89.03635	-244.81825	
